{"title":"Sarbjit (2016) HQ 1080p Blu-ray x264 DTS-HDMA 7.1 ESub -DDR","uid":15543441,"size":17596896461,"categoryP":"video","categoryS":"hd___movies","magnet":"?xt=urn:btih:2e16fed23d8fd1993134ab97264dee7db8eccc1e&amp;dn=Sarbjit+%282016%29+HQ+1080p+Blu-ray+x264+DTS-HDMA+7.1+ESub+-DDR&amp;tr=udp%3A%2F%2Ftracker.leechers-paradise.org%3A6969&amp;tr=udp%3A%2F%2Fzer0day.ch%3A1337&amp;tr=udp%3A%2F%2Fopen.demonii.com%3A1337&amp;tr=udp%3A%2F%2Ftracker.coppersurfer.tk%3A6969&amp;tr=udp%3A%2F%2Fexodus.desync.com%3A6969","seeders":5,"leechers":10,"uploader":"SaM","files":3,"time":1470945722,"description":"** SARBJIT **\r\n\r\n** 2016 **\r\n** HQ 1080p / Blu-Ray / x264 / DTS-HDMA 7.1 **\r\n\r\n** English Subtitle(s) ** \r\n \nhttp://extraimago.com/image/wnGe \nhttp://extraimago.com/image/wnGZ \nhttp://extraimago.com/image/wnGK \nhttp://extraimago.com/image/wnGJ \nhttp://extraimago.com/image/wnG0 \nhttp://extraimago.com/image/wnGz \nhttp://extraimago.com/image/wnGU \nhttp://extraimago.com/image/wnGM \nhttp://extraimago.com/image/wnG9 \nhttp://extraimago.com/image/wnG3 \nhttp://extraimago.com/image/wnGb\r\n\r\n[ Info ]\r\nSource : DDR Blu-ray BD50\r\nFormat : Matroska\r\nFile size : 16.2 GiB\r\nDuration : 2h 11mn\r\nOverall bit rate : 17.6 Mbps\r\n\r\nVideo\r\nFormat : AVC\r\nFormat/Info : Advanced Video Codec\r\nFormat profile :   \r\nFormat settings, CABAC : Yes\r\nFormat settings, ReFrames : 5 frames\r\nCodec ID : V_MPEG4/ISO/AVC\r\nDuration : 2h 11mn\r\nBit rate : 12.4 Mbps\r\nWidth : 1 920 pixels\r\nHeight : 800 pixels\r\nDisplay aspect ratio : 2.40:1\r\nFrame rate mode : Constant\r\nFrame rate : 24.000 fps\r\ncolor space : YUV\r\nChroma subsampling : 4:2:0\r\nBit depth : 8 bits\r\nScan type : Progressive\r\nBits/(Pixel*Frame) : 0.336\r\nStream size : 11.4 GiB (70%)\r\nDefault : Yes\r\nForced : No\r\ncolor range : Limited\r\ncolor primaries : BT.709\r\n\r\nAudio\r\nFormat : DTS\r\nFormat/Info : Digital Theater Systems\r\nFormat profile : MA / Core\r\nMode : 16\r\nFormat settings, Endianness : Big\r\nCodec ID : A_DTS\r\nDuration : 2h 11mn\r\nBit rate mode : Variable / Constant\r\nBit rate : 5 221 Kbps / 1 509 Kbps\r\nChannel(s) : 8 channels / 6 channels\r\nChannel positions : Front: L C R, Side: L R, Back: L R, LFE / Front: L C R, Side: L R, LFE\r\nSampling rate : 48.0 KHz\r\nFrame rate : 93.750 fps (512 spf)\r\nBit depth : 24 bits\r\nCompression mode : Lossless / Lossy\r\nStream size : 4.81 GiB (30%)\r\nLanguage : Hindi\r\nDefault : Yes\r\nForced : No\r\n\r\n\r\nText\r\nFormat : VobSub\r\nMuxing mode : zlib\r\nCodec ID : S_VOBSUB\r\nCodec ID/Info : Picture based subtitle format used on DVDs\r\nDuration : 2h 4mn\r\nBit rate : 2 798 bps\r\nCount of elements : 1579\r\nStream size : 2.49 MiB (0%)\r\nLanguage : English\r\nDefault : Yes\r\nForced : No\r\n\r\nChapters = YES\r\n\r\n[ A DDR Exclusive Tiny Encode !!! NOTICE ]","torrent":{"xt":"urn:btih:2e16fed23d8fd1993134ab97264dee7db8eccc1e","amp;dn":"Sarbjit+%282016%29+HQ+1080p+Blu-ray+x264+DTS-HDMA+7.1+ESub+-DDR","amp;tr":["udp%3A%2F%2Ftracker.leechers-paradise.org%3A6969","udp%3A%2F%2Fzer0day.ch%3A1337","udp%3A%2F%2Fopen.demonii.com%3A1337","udp%3A%2F%2Ftracker.coppersurfer.tk%3A6969","udp%3A%2F%2Fexodus.desync.com%3A6969"],"infoHash":"2e16fed23d8fd1993134ab97264dee7db8eccc1e","infoHashBuffer":{"type":"Buffer","data":[46,22,254,210,61,143,209,153,49,52,171,151,38,77,238,125,184,236,204,30]},"announce":[],"urlList":[]}}